<svg width="477" height="574" viewBox="0 0 477 574" fill="none" xmlns="http://www.w3.org/2000/svg">
<mask id="mask0_521_120" style="mask-type:alpha" maskUnits="userSpaceOnUse" x="0" y="0" width="477" height="574">
<path d="M72.5 476.53L0.5 131.03L403.5 0.0297852L477 269.03L434.5 551.53L255 573.53L130 551.53L72.5 476.53Z" fill="#D9D9D9"/>
</mask>
<g mask="url(#mask0_521_120)">
<path d="M-107.657 755.741C-116.377 767.15 -114.197 783.467 -102.789 792.187C-91.3799 800.907 -75.0625 798.727 -66.3428 787.318L-107.657 755.741ZM392.771 174.087C390.87 159.854 377.79 149.857 363.557 151.759L131.618 182.743C117.385 184.644 107.388 197.724 109.289 211.957C111.191 226.19 124.27 236.187 138.503 234.285L344.672 206.744L372.213 412.912C374.115 427.145 387.194 437.142 401.427 435.24C415.66 433.339 425.657 420.26 423.755 406.027L392.771 174.087ZM-87 771.53L-66.3428 787.318L387.657 193.318L367 177.53L346.343 161.741L-107.657 755.741L-87 771.53Z" fill="url(#paint0_linear_521_120)"/>
</g>
<defs>
<linearGradient id="paint0_linear_521_120" x1="367.397" y1="177.833" x2="-86.6027" y2="771.833" gradientUnits="userSpaceOnUse">
<stop stop-color="#5554E3"/>
<stop offset="1" stop-color="#181751"/>
</linearGradient>
</defs>
</svg>
