<svg width="137" height="109" viewBox="0 0 137 109" fill="none" xmlns="http://www.w3.org/2000/svg">
<path d="M66.4651 27.7353C68.0132 26.3628 68.6237 24.2061 67.8169 22.2889C67.3155 21.1343 66.7704 20.0015 66.1599 18.9122L65.4839 17.7358C64.8298 16.6465 64.1103 15.579 63.3472 14.5551C62.1044 12.8994 59.924 12.3548 57.9617 13.0083L51.813 15.0344C49.48 13.1173 46.7982 11.5487 43.9201 10.4812L42.5901 4.16346C42.1758 2.13741 40.6059 0.525292 38.5564 0.285652C37.1174 0.0895832 35.6565 0.00244141 34.1739 0.00244141H34.0212C32.5386 0.00244141 31.0777 0.0895831 29.6387 0.263867C27.5892 0.503506 26.0193 2.13741 25.605 4.14167L24.275 10.4812C21.3751 11.5705 18.7151 13.1173 16.3821 15.0344L10.2116 13.0301C8.24929 12.3766 6.06892 12.9212 4.82611 14.5769C4.06298 15.6008 3.34346 16.6683 2.66755 17.7576L2.01344 18.9122C1.40294 20.0015 0.857844 21.1343 0.356359 22.3107C-0.450377 24.2061 0.160126 26.3628 1.70819 27.7571L6.5486 32.0706C6.30876 33.5302 6.17794 35.0552 6.17794 36.602C6.17794 38.1487 6.30876 39.6737 6.5486 41.1551L1.70819 45.4686C0.160126 46.8411 -0.450377 48.9979 0.356359 50.915C0.857844 52.0696 1.40294 53.2025 2.01344 54.3135L2.66755 55.4464C3.32166 56.5574 4.04118 57.6031 4.82611 58.627C6.06892 60.2827 8.24929 60.8274 10.2116 60.1738L16.3603 58.1478C18.6933 60.0649 21.3751 61.6334 24.2532 62.7009L25.5832 69.0405C25.9975 71.0665 27.5673 72.6786 29.6169 72.9183C31.0777 73.0926 32.5604 73.1797 34.0648 73.1797C36.3215 73.1797 37.0519 73.0926 38.5128 72.9183C40.5623 72.6786 42.1322 71.0447 42.5465 69.0405L43.8765 62.7009C46.7764 61.6116 49.4364 60.0649 51.7694 58.1478L57.9181 60.1738C59.8804 60.8274 62.0608 60.2827 63.3036 58.627C64.0667 57.6031 64.7862 56.5574 65.4403 55.4464L66.1162 54.2699C66.7267 53.1807 67.2718 52.0478 67.7733 50.8932C68.5801 48.9979 67.9696 46.8411 66.4215 45.4468L61.5811 41.1333C61.8209 39.6519 61.9517 38.1269 61.9517 36.5802C61.9517 35.0334 61.8209 33.5084 61.5811 32.027L66.4215 27.7135L66.4651 27.7353ZM23.6209 36.602C23.6209 33.8286 24.7235 31.1688 26.6862 29.2077C28.6489 27.2467 31.311 26.145 34.0866 26.145C36.8623 26.145 39.5243 27.2467 41.4871 29.2077C43.4498 31.1688 44.5524 33.8286 44.5524 36.602C44.5524 39.3753 43.4498 42.0351 41.4871 43.9962C39.5243 45.9573 36.8623 47.059 34.0866 47.059C31.311 47.059 28.6489 45.9573 26.6862 43.9962C24.7235 42.0351 23.6209 39.3753 23.6209 36.602ZM109.244 107.296C110.618 108.842 112.776 109.452 114.695 108.646C115.85 108.145 116.984 107.601 118.074 106.991L119.252 106.315C120.342 105.662 121.41 104.943 122.435 104.18C124.092 102.939 124.637 100.76 123.983 98.7994L121.955 92.6559C123.874 90.3248 125.444 87.6452 126.512 84.7695L132.857 83.4406C134.885 83.0267 136.499 81.4582 136.738 79.4103C136.913 77.9507 137 76.4693 137 74.9661C137 72.7113 136.913 71.9815 136.738 70.5219C136.499 68.474 134.863 66.9055 132.857 66.4916L126.512 65.1409C125.422 62.2434 123.874 59.5856 121.955 57.2545L123.983 51.1111C124.637 49.1504 124.092 46.9718 122.435 45.7301C121.41 44.9676 120.342 44.2486 119.252 43.5733L118.096 42.9197C117.006 42.3097 115.872 41.7651 114.695 41.264C112.798 40.458 110.639 41.068 109.244 42.6147L104.927 47.4511C103.444 47.2115 101.918 47.0808 100.37 47.0808C98.8218 47.0808 97.2955 47.2115 95.8129 47.4511L91.4957 42.6147C90.1221 41.068 87.9635 40.458 86.0448 41.264C84.8892 41.7651 83.7554 42.3097 82.6434 42.9197L81.5096 43.5733C80.3977 44.2269 79.3511 44.9458 78.3263 45.7301C76.6692 46.9718 76.1241 49.1504 76.7782 51.1111L78.806 57.2545C76.8873 59.5856 75.3174 62.2652 74.249 65.1409L67.9042 66.448C65.8764 66.8619 64.2629 68.4305 64.0231 70.4783C63.8487 71.9379 63.7615 73.4193 63.7615 74.9225C63.7615 77.1773 63.8487 77.9071 64.0231 79.3668C64.2629 81.4146 65.8982 82.9831 67.9042 83.3971L74.249 84.726C75.3392 87.6234 76.8873 90.2813 78.806 92.6123L76.7782 98.7558C76.1241 100.716 76.6692 102.895 78.3263 104.137C79.3511 104.899 80.3977 105.618 81.5096 106.272L82.687 106.947C83.7772 107.557 84.911 108.102 86.0666 108.603C87.9635 109.409 90.1221 108.799 91.5175 107.252L95.8347 102.416C97.3173 102.655 98.8436 102.786 100.392 102.786C101.94 102.786 103.466 102.655 104.949 102.416L109.266 107.252L109.244 107.296ZM100.37 64.4873C101.744 64.4873 103.105 64.7578 104.375 65.2833C105.645 65.8088 106.798 66.5791 107.77 67.5501C108.742 68.5211 109.513 69.6739 110.039 70.9426C110.565 72.2113 110.836 73.5711 110.836 74.9443C110.836 76.3176 110.565 77.6773 110.039 78.946C109.513 80.2147 108.742 81.3675 107.77 82.3385C106.798 83.3096 105.645 84.0798 104.375 84.6053C103.105 85.1308 101.744 85.4013 100.37 85.4013C98.9954 85.4013 97.6345 85.1308 96.3647 84.6053C95.095 84.0798 93.9412 83.3096 92.9694 82.3385C91.9976 81.3675 91.2267 80.2147 90.7007 78.946C90.1748 77.6773 89.9041 76.3176 89.9041 74.9443C89.9041 73.5711 90.1748 72.2113 90.7007 70.9426C91.2267 69.6739 91.9976 68.5211 92.9694 67.5501C93.9412 66.5791 95.095 65.8088 96.3647 65.2833C97.6345 64.7578 98.9954 64.4873 100.37 64.4873Z" fill="#A2C617"/>
</svg>
